<svg xmlns="http://www.w3.org/2000/svg" width="112" height="28" viewBox="0 0 112 28" fill="none">
<path d="M1.8 2.25V27H7.44V17.82H10.83C15.66 17.82 19.29 14.97 19.29 9.87C19.29 4.74 15.66 2.25 10.83 2.25H1.8ZM7.44 13.32V6.75H9.03C11.25 6.75 13.35 7.5 13.35 10.05C13.35 12.57 11.25 13.32 9.03 13.32H7.44ZM21.7805 27H27.0905V1.2H21.7805V27ZM29.5767 19.32C29.5767 23.82 32.7267 27.45 37.2267 27.45C39.3267 27.45 41.1267 26.52 42.2667 25.26H42.3267V27H47.5767V11.61H42.2667V13.08C41.0067 11.85 39.2967 11.16 37.2267 11.16C32.7267 11.16 29.5767 14.82 29.5767 19.32ZM35.2167 19.32C35.2167 17.19 36.8067 15.69 38.8167 15.69C40.7967 15.69 42.3867 17.19 42.3867 19.32C42.3867 21.42 40.8867 22.92 38.8167 22.92C36.6567 22.92 35.2167 21.42 35.2167 19.32ZM51.1652 27H56.4752V18.3C56.4752 16.77 58.0352 15.3 59.6252 15.3C61.3352 15.3 62.3852 16.77 62.3852 18.3V27H67.6952V16.86C67.6952 12.57 63.7652 11.16 60.9452 11.16C59.2652 11.16 57.7352 12.03 56.5352 13.23H56.4752V11.61H51.1652V27ZM86.5692 20.04C86.5992 19.86 86.5992 19.53 86.5992 19.32C86.5992 13.92 83.0292 11.16 78.3492 11.16C73.6992 11.16 69.8892 14.82 69.8892 19.32C69.8892 23.79 73.6992 27.45 78.3492 27.45C81.7692 27.45 84.5892 26.34 86.3292 23.43L82.4892 21.51C81.1992 22.89 80.4492 23.22 78.7392 23.22C77.3892 23.22 75.4092 22.41 75.4092 20.04H86.5692ZM75.5592 17.1C75.6492 15.69 76.6692 14.61 78.4992 14.61C80.0592 14.61 81.1692 15.48 81.4092 17.1H75.5592ZM89.8289 11.61H87.6089V15.66H89.8289V21.57C89.8289 24.3 90.8489 27.45 95.0789 27.45C97.2689 27.45 98.9789 26.49 98.9789 26.49L97.6589 22.2C97.6589 22.2 97.0289 22.68 96.3389 22.68C95.4989 22.68 95.1389 21.99 95.1389 20.55V15.66H98.3789V11.61H95.1389V5.88H89.8289V11.61Z" fill="black"/>
<path d="M110 23.5C110 23.7433 109.975 23.986 109.925 24.2241C109.591 25.8097 108.185 27 106.5 27C104.567 27 103 25.433 103 23.5C103 22.6228 103.329 21.7776 103.923 21.1317C104.516 20.4858 105.33 20.0863 106.204 20.0124C106.302 20.0042 106.4 20.0001 106.5 20C106.623 20 106.745 20.0063 106.867 20.019C108.627 20.2025 110 21.6909 110 23.5Z" fill="#0093B9"/>
<path d="M105.776 24.3451L105.534 24.7071L105.776 25.0692L106.259 25.552H106.5L106.621 26.3968H106.983L107.465 26.0347L107.828 25.7933V25.4313L108.19 25.1899L108.431 24.7071L108.19 24.3451H107.586L107.224 24.1037H106.862L106.5 23.8623L106.017 24.1037L105.776 24.3451Z" fill="#85BB40"/>
<path d="M106.621 20.8452L106.5 21.0865H106.259L105.655 20.7245L105.293 20.8452L104.931 21.0865V21.4486L105.172 21.8107L105.535 21.69L105.414 21.4486V21.2072H105.776L106.138 21.4486L106.259 21.9314L105.897 22.052L105.655 22.4141V22.6555L105.776 23.1383L105.414 23.2589L105.293 23.0176H104.931L104.569 23.1383L104.69 23.5003H104.931L105.172 23.621L105.293 23.8624L105.535 23.9831L105.172 24.2245L104.931 23.9831H104.569L104.086 23.621L103.724 23.0176V22.4141L103.845 21.9314L103.592 21.5521C103.884 21.1159 104.271 20.751 104.723 20.4846C105.175 20.2181 105.681 20.0568 106.204 20.0127L106.5 20.6038L106.621 20.8452Z" fill="#85BB40"/>
<path d="M110 23.4998C110 23.7431 109.975 23.9858 109.925 24.2239H109.517L109.155 23.6205L109.276 23.017L108.552 22.8963L108.431 22.4136V21.6894L108.19 21.5688L108.069 21.2067L107.827 20.9653L107.465 21.086L107.345 20.8446V20.6032L106.983 20.4825L106.867 20.0188C108.627 20.2022 110 21.6907 110 23.4998Z" fill="#85BB40"/>
</svg>
